<svg xmlns="http://www.w3.org/2000/svg" viewBox="0 0 900 520" role="img" aria-labelledby="title desc">
  <title id="title">Phonon dynamics concept</title>
  <desc id="desc">A dark chart-like graphic showing atomistic modes and a phonon density of states curve.</desc>
  <rect width="900" height="520" fill="#0a0d10"/>
  <rect x="30" y="30" width="860" height="460" rx="18" fill="#111820" stroke="#2d3c48"/>
  <g transform="translate(72 92)">
    <g stroke="#4facfe" stroke-width="2.5" opacity="0.7">
      <path d="M45 80 C120 20 170 145 245 80 C320 20 370 145 445 80"/>
      <path d="M45 170 C120 110 170 235 245 170 C320 110 370 235 445 170"/>
      <path d="M45 260 C120 200 170 325 245 260 C320 200 370 325 445 260"/>
    </g>
    <g fill="#ffffff">
      <circle cx="45" cy="80" r="14"/><circle cx="245" cy="80" r="14"/><circle cx="445" cy="80" r="14"/>
      <circle cx="145" cy="170" r="14"/><circle cx="345" cy="170" r="14"/>
      <circle cx="45" cy="260" r="14"/><circle cx="245" cy="260" r="14"/><circle cx="445" cy="260" r="14"/>
    </g>
    <g stroke="#ffcc66" stroke-width="4" stroke-linecap="round">
      <path d="M45 80 l20 -18"/><path d="M245 80 l-18 22"/><path d="M445 80 l24 -10"/>
      <path d="M145 170 l-22 -16"/><path d="M345 170 l18 20"/><path d="M245 260 l26 -6"/>
    </g>
  </g>
  <g transform="translate(575 104)">
    <rect width="250" height="285" rx="12" fill="#0b1117" stroke="#2d3c48"/>
    <path d="M36 245 H218 M36 38 V245" stroke="#6f7f8f" stroke-width="2"/>
    <path d="M42 236 C54 210 60 145 78 142 C96 139 102 219 120 226 C138 232 147 54 166 50 C186 47 190 201 216 224" fill="none" stroke="#4facfe" stroke-width="5"/>
    <text x="44" y="274" fill="#b0b0b0" font-family="Arial, sans-serif" font-size="18">phonon DOS</text>
  </g>
  <text x="58" y="76" fill="#ffffff" font-family="Arial, sans-serif" font-size="30" font-weight="700">RMC Models -> Vibrational Spectra</text>
  <text x="58" y="455" fill="#b0b0b0" font-family="Arial, sans-serif" font-size="18">Force constants, normal modes, and scattering-weighted spectra for disordered supercells</text>
</svg>
