<svg xmlns="http://www.w3.org/2000/svg" viewBox="0 0 900 520" role="img" aria-labelledby="title desc">
  <title id="title">Physics-informed neural network concept</title>
  <desc id="desc">A dark diagram connecting observations, neural network prediction, and physical residual loss.</desc>
  <rect width="900" height="520" fill="#090d12"/>
  <rect x="30" y="30" width="860" height="460" rx="18" fill="#111820" stroke="#2d3c48"/>
  <text x="58" y="76" fill="#ffffff" font-family="Arial, sans-serif" font-size="30" font-weight="700">Physics-Informed ML</text>
  <g transform="translate(72 136)" fill="#0b1117" stroke="#2d3c48">
    <rect width="210" height="175" rx="12"/>
    <rect x="302" width="210" height="175" rx="12"/>
    <rect x="604" width="210" height="175" rx="12"/>
  </g>
  <g fill="#b0b0b0" font-family="Arial, sans-serif" font-size="18">
    <text x="104" y="176">observations</text>
    <text x="400" y="176">network</text>
    <text x="676" y="176">physics loss</text>
  </g>
  <g stroke="#4facfe" stroke-width="4" fill="none">
    <path d="M104 255 C138 216 175 296 218 230"/>
    <path d="M374 240 C405 195 447 198 482 238"/>
    <path d="M676 250 h130 M691 218 l52 52 M743 218 l-52 52"/>
    <path d="M290 224 H360 M585 224 H655"/>
  </g>
  <g fill="#ffffff">
    <circle cx="374" cy="240" r="11"/><circle cx="410" cy="205" r="11"/><circle cx="446" cy="205" r="11"/><circle cx="482" cy="238" r="11"/>
    <circle cx="428" cy="269" r="11"/>
  </g>
  <text x="126" y="396" fill="#b0b0b0" font-family="Arial, sans-serif" font-size="20">data loss + differential equation residual + boundary constraints</text>
</svg>
