<svg xmlns="http://www.w3.org/2000/svg" viewBox="0 0 900 520" role="img" aria-labelledby="title desc">
  <title id="title">RMC fit dashboard concept</title>
  <desc id="desc">A dark dashboard with fit curves, residuals, and convergence traces.</desc>
  <rect width="900" height="520" fill="#090d12"/>
  <rect x="28" y="28" width="844" height="464" rx="18" fill="#111820" stroke="#2d3c48"/>
  <text x="58" y="76" fill="#ffffff" font-family="Arial, sans-serif" font-size="30" font-weight="700">RMCprofile Analysis Dashboard</text>
  <g transform="translate(58 112)">
    <rect width="365" height="260" rx="10" fill="#0b1117" stroke="#2d3c48"/>
    <path d="M34 222 H330 M34 35 V222" stroke="#6f7f8f" stroke-width="2"/>
    <path d="M38 168 C86 136 113 62 157 90 C210 124 231 190 326 72" fill="none" stroke="#4facfe" stroke-width="4"/>
    <path d="M38 176 C91 146 120 69 157 94 C208 130 236 186 326 78" fill="none" stroke="#ffcc66" stroke-width="3" stroke-dasharray="7 7"/>
    <text x="34" y="248" fill="#b0b0b0" font-family="Arial, sans-serif" font-size="16">PDF / S(Q) fit comparison</text>
  </g>
  <g transform="translate(470 112)">
    <rect width="300" height="118" rx="10" fill="#0b1117" stroke="#2d3c48"/>
    <path d="M28 83 C66 81 82 58 112 61 C145 64 154 91 190 75 C218 62 240 45 272 47" fill="none" stroke="#4facfe" stroke-width="4"/>
    <text x="24" y="104" fill="#b0b0b0" font-family="Arial, sans-serif" font-size="16">residual diagnostics</text>
  </g>
  <g transform="translate(470 254)">
    <rect width="300" height="118" rx="10" fill="#0b1117" stroke="#2d3c48"/>
    <path d="M28 36 C80 42 97 61 131 70 C174 81 217 86 272 91" fill="none" stroke="#ffcc66" stroke-width="4"/>
    <text x="24" y="104" fill="#b0b0b0" font-family="Arial, sans-serif" font-size="16">convergence tracking</text>
  </g>
  <g fill="#4facfe" opacity="0.9">
    <circle cx="794" cy="128" r="9"/><circle cx="821" cy="154" r="6"/><circle cx="804" cy="183" r="8"/>
    <circle cx="826" cy="219" r="5"/><circle cx="792" cy="244" r="7"/>
  </g>
</svg>
